<svg height="150.00000pt" width="170.00000pt" xmlns="http://www.w3.org/2000/svg" xlink="http://www.w3.org/1999/xlink">
  <defs id="defs3">
    <linearGradient id="linearGradient3035">
      <stop id="stop3036" offset="0.0000000" style="stop-color:#ffffff;stop-opacity:1.0000000;"/>
      <stop id="stop3037" offset="1.0000000" style="stop-color:#000000;stop-opacity:1.0000000;"/>
    </linearGradient>
  </defs>
  <g id="g3718" transform="translate(-34.51588,-24.33660)">
    <path d="M 254.49715,619.68460 C 262.08256,602.40337 277.98276,592.65501 289.98868,597.92487 C 301.99459,603.19474 305.58225,621.49708 297.99684,638.77831 C 290.41143,656.05955 288.09655,664.30914 265.29390,655.08046 C 253.13998,650.16155 246.91174,636.96584 254.49715,619.68460 z " id="path1160"  style="fill:#fee6ba;fill-opacity:1.0000000;fill-rule:nonzero;stroke:#000000;stroke-width:5.0000000;stroke-linecap:round;stroke-linejoin:round;stroke-miterlimit:4.0000000;stroke-dashoffset:0.0000000;stroke-opacity:1.0000000" transform="translate(-213.0559,-541.2772)"/>
    <path d="M 452.33789,620.40438 C 444.75248,603.12315 428.85228,593.37479 416.84636,598.64465 C 404.84045,603.91452 401.25279,622.21686 408.83820,639.49809 C 416.42361,656.77933 418.73849,665.02892 441.54114,655.80024 C 453.69506,650.88133 459.92330,637.68562 452.33789,620.40438 z " id="path1162"  style="fill:#fee6ba;fill-opacity:1.0000000;fill-rule:nonzero;stroke:#000000;stroke-width:5.0000000;stroke-linecap:round;stroke-linejoin:round;stroke-miterlimit:4.0000000;stroke-dashoffset:0.0000000;stroke-opacity:1.0000000" transform="translate(-213.0559,-541.2772)"/>
    <path d="M 441.58715 669.07751 A 67.119804 82.775093 0 1 1  307.34754,669.07751 A 67.119804 82.775093 0 1 1  441.58715 669.07751 z" id="path1159" style="fill:#ac4607;fill-opacity:1.0000000;fill-rule:nonzero;stroke:#000000;stroke-width:3.5115373;stroke-linecap:round;stroke-linejoin:round;stroke-miterlimit:4.0000000;stroke-dashoffset:0.0000000;stroke-opacity:1.0000000" transform="matrix(1.102646,0.000000,0.000000,1.034265,-273.9867,-578.2390)"/>
    <path d="M 351.97410,618.33277 C 350.17464,618.33277 328.49736,611.02478 317.42450,613.65417 C 297.63046,618.33277 288.99305,633.08833 294.03154,660.79999 C 296.45498,674.12889 303.38872,682.75338 303.38872,682.75338 C 303.38872,682.75338 287.91932,688.21123 290.07273,709.74526 C 292.95187,738.53660 323.70447,750.68271 356.29280,750.41303 C 383.68163,750.20300 414.90501,737.09641 415.31505,711.18483 C 415.61171,688.10253 408.47710,687.07208 402.35894,682.39349 C 403.79851,680.59403 407.00575,670.80050 410.99635,656.48129 C 417.11451,634.52789 406.67765,616.89320 381.12533,613.29428 C 370.83838,611.85535 354.13345,618.33277 351.97410,618.33277 z " style="fill:#ffd8a7;fill-opacity:1.0000000;fill-rule:evenodd;stroke:#000000;stroke-width:2.5000000;stroke-linecap:butt;stroke-linejoin:miter;stroke-miterlimit:4.0000000;stroke-opacity:1.0000000" transform="translate(-213.0559,-541.2772)"/>
    <path d="M 341.89714 641.00592 A 10.616806 5.3983760 0 1 1  320.66353,641.00592 A 10.616806 5.3983760 0 1 1  341.89714 641.00592 z" style="fill:#000000;fill-opacity:1.0000000;fill-rule:nonzero;stroke:#000000;stroke-width:2.4999995;stroke-linecap:round;stroke-linejoin:round;stroke-miterlimit:4.0000000;stroke-dashoffset:0.0000000;stroke-opacity:1.0000000" transform="matrix(-3.951798e-2,-0.999219,0.999219,-3.951798e-2,-509.1892,456.0815)"/>
    <path d="M 341.89714 641.00592 A 10.616806 5.3983760 0 1 1  320.66353,641.00592 A 10.616806 5.3983760 0 1 1  341.89714 641.00592 z" style="fill:#000000;fill-opacity:1.0000000;fill-rule:nonzero;stroke:#000000;stroke-width:2.5000000;stroke-linecap:round;stroke-linejoin:round;stroke-miterlimit:4.0000000;stroke-dashoffset:0.0000000;stroke-opacity:1.0000000" transform="matrix(4.268723e-2,0.999088,-0.999088,4.268723e-2,785.5323,-258.6124)"/>
    <path d="M 341.89714 641.00592 A 10.616806 5.3983760 0 1 1  320.66353,641.00592 A 10.616806 5.3983760 0 1 1  341.89714 641.00592 z" id="path3029" style="fill:#000000;fill-opacity:1.0000000;fill-rule:nonzero;stroke:#000000;stroke-width:2.5000000;stroke-linecap:round;stroke-linejoin:round;stroke-miterlimit:4.0000000;stroke-dashoffset:0.0000000;stroke-opacity:1.0000000" transform="matrix(1.210214,0.000000,0.000000,1.164813,-262.3483,-619.2117)"/>
    <path d="M 307.34753,705.40179 C 324.98223,729.51453 374.64728,736.35247 399.11991,706.12157" style="fill:none;fill-opacity:0.75000000;fill-rule:evenodd;stroke:#000000;stroke-width:8.7500000;stroke-linecap:round;stroke-linejoin:miter;stroke-miterlimit:4.0000000;stroke-opacity:1.0000000" transform="translate(-213.0559,-541.2772)"/>
  </g>
</svg>
